<svg width="1512" height="305" viewBox="0 0 1512 305" fill="none" xmlns="http://www.w3.org/2000/svg">
<path d="M1449.81 23.3602H1471.98C1473.57 31.1397 1475.57 41.7395 1477.52 54.3612C1478.55 61.1084 1484.04 97.5475 1485 139.531C1485.28 151.791 1485.8 193.413 1478.25 247.582C1476.12 262.907 1473.82 275.774 1471.98 285.245H1447.25" fill="#910202"/>
<path d="M1420.46 304.252H42.2109V0H1420.47C1427.45 3.34168 1437.1 8.97149 1446.21 18.4112C1459.14 31.7885 1472.43 54.297 1471.98 158.911C1471.59 248.604 1461.66 269.771 1448.08 284.394C1438.45 294.759 1427.98 300.772 1420.46 304.263V304.252Z" fill="#DD1414"/>
<path d="M1.51207 15.4955H42.1991V289.96H1.51207C1.30986 286.937 1.02248 281.861 0.756417 273.347C0.373279 261.279 -0.0204593 240.984 0.000826074 146.608C0.0114688 65.7057 0.309436 46.6028 0.703216 33.417C0.990569 24.0625 1.29923 18.6456 1.52273 15.4955H1.51207Z" fill="#910202"/>
<path d="M1325.97 266.461H664.734V33.9061H1325.97C1357.35 28.6169 1388.75 23.3278 1420.13 18.0386C1429.07 54.4671 1437.29 104.656 1434.86 164.295C1433.01 209.823 1425.46 248.806 1417.22 279.37C1386.8 275.071 1356.37 270.761 1325.96 266.461H1325.97Z" fill="#C10000"/>
<path d="M1191.88 80.4236L1313.97 43.6012L1324.21 33.9061L1420.14 18.0386L1417.23 279.381L1325.96 266.461L1153.12 249.987L1157.96 218.018L1261.64 199.606L1138.58 170.053V140.499L1308.16 122.088L1126.95 100.772V85.2658L1336.26 69.0363" fill="#E68440"/>
<path d="M781.623 39.7273L786.561 40.8766L928.301 74.1231L940.902 111.914H824.62L822.683 128.867L1027.14 148.704V174.405L822.683 212.93H1027.14V239.334L955.44 250.955L998.075 266.461H664.734V33.9059H924.427L926.364 52.3171" fill="#E68440"/>
<path d="M677.559 33.9059H77.2892C65.6394 33.9059 56.1953 43.3496 56.1953 54.999V245.368C56.1953 257.017 65.6394 266.461 77.2892 266.461H677.559C689.209 266.461 698.653 257.017 698.653 245.368V54.999C698.653 43.3496 689.209 33.9059 677.559 33.9059Z" fill="#910202"/>
<path d="M650.888 43.6016H75.8524C64.9961 43.6016 56.1953 52.4021 56.1953 63.258V235.184C56.1953 246.04 64.9961 254.84 75.8524 254.84H650.888C661.745 254.84 670.545 246.04 670.545 235.184V63.258C670.545 52.4021 661.745 43.6016 650.888 43.6016Z" fill="#720303"/>
<path d="M1420.13 1.93701C1420.13 7.31136 1420.13 12.675 1420.13 18.0493C1427.95 51.0191 1434.88 93.6095 1435.15 143.405C1435.46 201.416 1426.61 250.243 1417.23 286.331C1417.23 292.301 1417.23 298.282 1417.23 304.252" stroke="#231F20" stroke-width="2.73" stroke-miterlimit="10"/>
<path d="M472.812 5.69348H290.034C287.424 5.69348 285.309 7.80908 285.309 10.4187C285.309 13.0284 287.424 15.1438 290.034 15.1438H472.812C475.421 15.1438 477.537 13.0284 477.537 10.4187C477.537 7.80908 475.421 5.69348 472.812 5.69348Z" fill="#440303" stroke="#F7904B" stroke-width="2.67" stroke-miterlimit="10"/>
<path d="M272.71 5.69348H89.9324C87.3226 5.69348 85.207 7.80908 85.207 10.4187C85.207 13.0284 87.3226 15.1438 89.9324 15.1438H272.71C275.32 15.1438 277.436 13.0284 277.436 10.4187C277.436 7.80908 275.32 5.69348 272.71 5.69348Z" fill="#440303" stroke="#F7904B" stroke-width="2.67" stroke-miterlimit="10"/>
<path d="M672.909 5.69348H490.132C487.522 5.69348 485.406 7.80908 485.406 10.4187C485.406 13.0284 487.522 15.1438 490.132 15.1438H672.909C675.519 15.1438 677.635 13.0284 677.635 10.4187C677.635 7.80908 675.519 5.69348 672.909 5.69348Z" fill="#440303" stroke="#F7904B" stroke-width="2.67" stroke-miterlimit="10"/>
<path d="M873.011 5.69348H690.233C687.623 5.69348 685.508 7.80908 685.508 10.4187C685.508 13.0284 687.623 15.1438 690.233 15.1438H873.011C875.621 15.1438 877.736 13.0284 877.736 10.4187C877.736 7.80908 875.621 5.69348 873.011 5.69348Z" fill="#440303" stroke="#F7904B" stroke-width="2.67" stroke-miterlimit="10"/>
<path d="M1073.1 5.69348H890.327C887.717 5.69348 885.602 7.80908 885.602 10.4187C885.602 13.0284 887.717 15.1438 890.327 15.1438H1073.1C1075.71 15.1438 1077.83 13.0284 1077.83 10.4187C1077.83 7.80908 1075.71 5.69348 1073.1 5.69348Z" fill="#440303" stroke="#F7904B" stroke-width="2.67" stroke-miterlimit="10"/>
<path d="M1273.21 5.69348H1090.43C1087.82 5.69348 1085.71 7.80908 1085.71 10.4187C1085.71 13.0284 1087.82 15.1438 1090.43 15.1438H1273.21C1275.82 15.1438 1277.94 13.0284 1277.94 10.4187C1277.94 7.80908 1275.82 5.69348 1273.21 5.69348Z" fill="#440303" stroke="#F7904B" stroke-width="2.67" stroke-miterlimit="10"/>
<path d="M1406.8 5.69348H1306.54C1304.59 5.69348 1303.01 7.27544 1303.01 9.22679V11.6107C1303.01 13.562 1304.59 15.1438 1306.54 15.1438H1406.8C1408.75 15.1438 1410.33 13.562 1410.33 11.6107V9.22679C1410.33 7.27544 1408.75 5.69348 1406.8 5.69348Z" fill="#440303" stroke="#F7904B" stroke-width="2.67" stroke-miterlimit="10"/>
<path d="M472.812 285.234H290.034C287.424 285.234 285.309 287.349 285.309 289.959C285.309 292.569 287.424 294.684 290.034 294.684H472.812C475.421 294.684 477.537 292.569 477.537 289.959C477.537 287.349 475.421 285.234 472.812 285.234Z" fill="#440303" stroke="#F7904B" stroke-width="2.67" stroke-miterlimit="10"/>
<path d="M272.71 285.234H89.9324C87.3226 285.234 85.207 287.349 85.207 289.959C85.207 292.569 87.3226 294.684 89.9324 294.684H272.71C275.32 294.684 277.436 292.569 277.436 289.959C277.436 287.349 275.32 285.234 272.71 285.234Z" fill="#440303" stroke="#F7904B" stroke-width="2.67" stroke-miterlimit="10"/>
<path d="M672.909 285.234H490.132C487.522 285.234 485.406 287.349 485.406 289.959C485.406 292.569 487.522 294.684 490.132 294.684H672.909C675.519 294.684 677.635 292.569 677.635 289.959C677.635 287.349 675.519 285.234 672.909 285.234Z" fill="#440303" stroke="#F7904B" stroke-width="2.67" stroke-miterlimit="10"/>
<path d="M873.011 285.234H690.233C687.623 285.234 685.508 287.349 685.508 289.959C685.508 292.569 687.623 294.684 690.233 294.684H873.011C875.621 294.684 877.736 292.569 877.736 289.959C877.736 287.349 875.621 285.234 873.011 285.234Z" fill="#440303" stroke="#F7904B" stroke-width="2.67" stroke-miterlimit="10"/>
<path d="M1073.1 285.234H890.327C887.717 285.234 885.602 287.349 885.602 289.959C885.602 292.569 887.717 294.684 890.327 294.684H1073.1C1075.71 294.684 1077.83 292.569 1077.83 289.959C1077.83 287.349 1075.71 285.234 1073.1 285.234Z" fill="#440303" stroke="#F7904B" stroke-width="2.67" stroke-miterlimit="10"/>
<path d="M1273.21 285.234H1090.43C1087.82 285.234 1085.71 287.349 1085.71 289.959C1085.71 292.569 1087.82 294.684 1090.43 294.684H1273.21C1275.82 294.684 1277.94 292.569 1277.94 289.959C1277.94 287.349 1275.82 285.234 1273.21 285.234Z" fill="#440303" stroke="#F7904B" stroke-width="2.67" stroke-miterlimit="10"/>
<path d="M1406.8 285.234H1306.54C1304.59 285.234 1303.01 286.816 1303.01 288.767V291.151C1303.01 293.102 1304.59 294.684 1306.54 294.684H1406.8C1408.75 294.684 1410.33 293.102 1410.33 291.151V288.767C1410.33 286.816 1408.75 285.234 1406.8 285.234Z" fill="#440303" stroke="#F7904B" stroke-width="2.67" stroke-miterlimit="10"/>
<path d="M1426.2 20.9866C1434.43 53.8393 1442.12 97.9196 1442.12 150.184C1442.12 202.437 1434.42 246.518 1426.2 279.371C1435.75 272.847 1445.29 266.323 1454.84 259.799C1460.77 225.031 1465.05 182.057 1463.19 132.986C1461.86 97.5046 1457.6 65.7481 1452.3 38.5145C1443.6 32.6719 1434.89 26.8292 1426.2 20.9866Z" fill="#440303"/>
<path d="M42.2109 33.9067C47.5961 28.6601 52.992 23.4135 58.3772 18.1562C480.318 19.8909 902.259 21.6256 1324.21 23.3497V33.8961H42.2109V33.9067Z" fill="#DD1414"/>
<path d="M1357.82 63.9491H715.361C712.551 63.9491 710.273 66.2267 710.273 69.0361C710.273 71.8456 712.551 74.1232 715.361 74.1232H1357.82C1360.63 74.1232 1362.91 71.8456 1362.91 69.0361C1362.91 66.2267 1360.63 63.9491 1357.82 63.9491Z" fill="#910202"/>
<path d="M1357.82 111.915H715.361C712.551 111.915 710.273 114.192 710.273 117.002C710.273 119.811 712.551 122.089 715.361 122.089H1357.82C1360.63 122.089 1362.91 119.811 1362.91 117.002C1362.91 114.192 1360.63 111.915 1357.82 111.915Z" fill="#910202"/>
<path d="M1357.82 159.879H715.361C712.551 159.879 710.273 162.156 710.273 164.966C710.273 167.775 712.551 170.053 715.361 170.053H1357.82C1360.63 170.053 1362.91 167.775 1362.91 164.966C1362.91 162.156 1360.63 159.879 1357.82 159.879Z" fill="#910202"/>
<path d="M1357.82 207.844H715.361C712.551 207.844 710.273 210.122 710.273 212.931C710.273 215.741 712.551 218.018 715.361 218.018H1357.82C1360.63 218.018 1362.91 215.741 1362.91 212.931C1362.91 210.122 1360.63 207.844 1357.82 207.844Z" fill="#910202"/>
<path d="M1511.57 1.93628H1424.26V23.3592H1511.57V1.93628Z" fill="#DD1414"/>
<path d="M1511.57 282.828H1420.8V304.251H1511.57V282.828Z" fill="#DD1414"/>
<mask id="mask0_313_126836" style="mask-type:luminance" maskUnits="userSpaceOnUse" x="56" y="43" width="615" height="212">
<path d="M75.8577 254.33L650.894 254.33C661.75 254.33 670.551 245.53 670.551 234.674V62.7477C670.551 51.8919 661.75 43.0915 650.894 43.0915L75.8577 43.0915C65.0014 43.0915 56.2006 51.8919 56.2006 62.7477V234.674C56.2006 245.53 65.0014 254.33 75.8577 254.33Z" fill="white"/>
</mask>
<g mask="url(#mask0_313_126836)">
<path d="M667.792 265.144L545.432 279.255C559.757 265.239 574.093 251.224 588.418 237.208C563.152 239.655 537.876 242.103 512.61 244.54C518.049 235.026 523.477 225.522 528.915 216.008C484.62 221.989 440.336 227.96 396.041 233.941C393.87 224.426 391.688 214.923 389.517 205.409C401.469 204.44 413.431 203.472 425.383 202.514C426.937 195.352 428.501 188.2 430.055 181.038C404.225 179.378 378.395 177.717 352.565 176.068C343.955 166.947 335.356 157.827 326.746 148.706H441.443L449.318 105.148L371.584 99.4435L380.556 71.7309L538.706 70.9114L521.582 46.4555C521.582 46.4555 593.548 52.064 591.803 49.6695C590.057 47.275 591.686 2.73706 591.686 2.73706L684.543 26.895L677.274 291.728C639.503 284.949 601.732 278.159 563.961 271.38" fill="#E68440"/>
<path d="M495.484 254.332C498.475 246.722 501.466 239.113 504.456 231.504C465.057 235.591 425.658 239.677 386.258 243.764C382.64 226.992 379.011 210.23 375.392 193.458H413.983L418.059 185.849C393.825 185.21 369.581 184.582 345.348 183.943C333.087 172.194 320.816 160.456 308.556 148.707C312.717 144.418 316.889 140.14 321.05 135.851C356.374 137.032 391.697 138.203 427.02 139.384L436.258 115.748L356.916 106.776L374.849 60.3122H514.248C512.225 54.576 510.214 48.8292 508.192 43.093C498.709 42.9227 489.216 42.7524 479.733 42.5822H274.85C277.745 44.6893 280.651 46.7966 283.546 48.9037L181.652 58.6839L303.118 103.52L283.556 107.596L311.27 119.824L218.338 168.736L302.298 191.563L265.613 198.896C276.628 203.568 287.654 208.229 298.669 212.901C261.93 219.106 225.181 225.31 188.442 231.504C224.851 234.76 261.27 238.028 297.679 241.284C293.326 244.902 288.984 248.532 284.631 252.15C297.881 253.001 311.291 253.736 324.85 254.332C384.226 256.939 441.196 256.705 495.495 254.332H495.484Z" fill="#FFC9A4" stroke="#FFC9A4" stroke-width="0.47" stroke-miterlimit="10"/>
<path d="M596.248 189.891L625.484 187.263L645.865 252.755L666.245 254.384L711.626 169.33L669.779 40.8142L638.532 52.2228L624.675 111.734L591.789 113.629L596.248 189.891Z" fill="#C93000"/>
<path d="M538.651 198.542C538.268 198.542 530.797 205.066 530.797 205.066V210.228L545.058 211.175L551.987 208.323L559.319 208.046L564.343 204.853L568.557 203.023L570.867 197.319L569.377 192.966L538.651 198.532V198.542Z" fill="#C93000"/>
<path d="M538.651 100.315C538.268 100.315 530.797 93.7913 530.797 93.7913V88.6298L545.058 87.6826L551.987 90.5348L559.319 90.8115L564.343 94.0042L568.557 95.8346L570.867 101.539L569.377 105.892L538.651 100.326V100.315Z" fill="#C93000"/>
<path d="M639.62 154.931V143.789C631.83 133.263 624.05 122.738 616.26 112.213C611.694 112.479 607.118 112.745 602.552 113.011C600.774 137.946 598.997 162.881 597.23 187.816C611.364 176.854 625.487 165.893 639.62 154.942V154.931Z" fill="#9E2100"/>
<path d="M533.639 198.947C525.955 199.437 519.516 199.245 514.886 198.947L511.917 198.319L486.353 192.966L467.334 168.51L464.887 139.712L480.915 107.647L501.561 99.4949H541.504L571.122 101.4L592.865 108.466L598.57 110.095L614.874 122.046L626.56 136.722V158.464L619.493 170.149L609.436 179.929L597.484 189.709L569.494 193.785C561.735 195.297 555.158 196.34 550.199 197.042C543.834 197.947 539.46 198.575 533.628 198.947H533.639Z" fill="#C93000"/>
<path d="M626.57 199.245C641.875 185.293 657.189 171.33 672.494 157.378C658.424 134.146 644.344 110.914 630.274 87.6822C632.275 76.2524 634.265 64.8226 636.266 53.4034C646.77 48.3271 657.275 43.2613 667.79 38.1849C683.371 82.0205 698.951 125.856 714.522 169.692C698.941 198.554 683.36 227.415 667.79 256.277C660.297 255.639 652.815 255.011 645.323 254.372C639.076 235.993 632.828 217.614 626.57 199.234V199.245Z" fill="#9E2100"/>
<path d="M612.034 158.464L613.673 149.769L609.32 136.732L617.196 147.598L612.034 158.464Z" fill="#9E2100"/>
<path d="M525.766 162.786V181.261C525.766 188.314 531.484 194.031 538.537 194.031H557.013C564.066 194.031 569.784 188.314 569.784 181.261V162.786C569.784 155.733 564.066 150.015 557.013 150.015H538.537C531.484 150.015 525.766 155.733 525.766 162.786Z" fill="#681100"/>
<path d="M597.11 173.108C599.057 167.68 601.005 162.263 602.952 156.836V141.958C600.675 136.03 598.397 130.102 596.12 124.175C595.864 128.804 595.609 133.433 595.343 138.063C596.003 142.256 596.652 146.438 597.312 150.631C596.343 153.239 595.375 155.857 594.406 158.464C595.3 163.349 596.205 168.223 597.099 173.108H597.11Z" fill="#681100"/>
<path d="M538.422 131.747V161.141C538.422 165.179 541.695 168.453 545.733 168.453C549.771 168.453 553.045 165.179 553.045 161.141V131.747C553.045 127.71 549.771 124.436 545.733 124.436C541.695 124.436 538.422 127.71 538.422 131.747Z" fill="#681100"/>
<path d="M525.762 108.607V127.082C525.762 134.135 531.48 139.853 538.533 139.853H557.009C564.062 139.853 569.78 134.135 569.78 127.082V108.607C569.78 101.554 564.062 95.8361 557.009 95.8361H538.533C531.48 95.8361 525.762 101.554 525.762 108.607Z" fill="#681100"/>
<path d="M577.572 158.464L579.924 156.655L578.742 154.122L581.914 151.589L584.085 148.514V141.628L579.189 137.829L580.817 134.21V133.306L578.646 130.592L575.932 129.687C570.739 134.764 565.545 139.83 560.352 144.906C565.066 149.44 569.77 153.962 574.485 158.496H577.561L577.572 158.464Z" fill="#9E2100"/>
<path d="M514.757 186.081H519.408V172.47L523.761 152.888L534.925 146.449L520.344 149.163L513.512 169.724L516.928 172.47L513.512 175.226L514.757 186.081Z" fill="#9E2100"/>
<path d="M515.79 105.891H519.941V118.023L523.804 135.476L533.766 141.212L520.771 138.786L514.684 120.471L517.727 118.023L514.684 115.564L515.79 105.891Z" fill="#9E2100"/>
<path d="M597.239 174.438L590.566 158.688L596.207 150.823L591.471 141.99L596.122 124.175L596.899 141.756L600.124 147.119L600.113 153.079L595.558 157.655L597.239 174.438Z" fill="#9E2100"/>
</g>
<path d="M611.043 173.659C625.081 191.23 639.118 208.8 653.156 226.37C656.328 215.047 659.499 203.724 662.671 192.411C646.004 184.536 629.338 176.65 612.671 168.774C612.129 170.403 611.586 172.031 611.043 173.67V173.659Z" fill="#F938E6"/>
<path d="M605.711 123.896C620.047 106.326 634.382 88.7553 648.718 71.1849C651.954 82.5083 655.189 93.8317 658.424 105.144C641.407 113.02 624.389 120.906 607.371 128.781C606.818 127.153 606.264 125.524 605.711 123.886V123.896Z" fill="#F938E6"/>
<path d="M639.586 166.774L667.48 176.012L677.261 156.451L664.947 153.546L639.586 166.774Z" fill="#F938E6"/>
<path d="M616.203 138.338L651.26 128.792L650.175 148.703L636.861 157.079L616.203 138.338Z" fill="#F938E6"/>
<path d="M728.695 187.24L885.601 254.328L860.218 197.573L728.695 187.24Z" fill="#F938E6"/>
<path d="M772.184 89.4261L801.525 148.704L839.562 153.546L859.134 128.792V83.9879L807.156 57.9037L772.184 89.4261Z" fill="#F938E6"/>
</svg>
