<svg width="72" height="73" viewBox="0 0 72 73" fill="none" xmlns="http://www.w3.org/2000/svg">
<path d="M66.1847 65.5205L42.2958 30.8095L39.5948 26.884L22.5004 2.05877L21.0839 0H0.0820312L5.20194 7.44278L27.9264 40.4611L30.6274 44.3806L48.8863 70.9105L50.3028 72.9633H71.3046L66.1847 65.5205ZM52.7997 68.2155L33.8326 40.6532L31.1316 36.7277L9.12141 4.75378H18.5869L36.3896 30.6174L39.0906 34.5429L62.2713 68.2215H52.8057L52.7997 68.2155Z" fill="#9F2222"/>
<path d="M31.1276 36.7422L33.8286 40.6617L30.6294 44.389L6.05626 72.9717H0L27.9284 40.4696L31.1276 36.7422Z" fill="#9F2222"/>
<path d="M68.7738 0L42.2859 30.8155L39.0868 34.5369L36.3857 30.6174L39.5849 26.8901L57.5256 6.00825L62.7116 0H68.7738Z" fill="#9F2222"/>
</svg>
