<svg width="205" height="615" viewBox="0 0 205 615" fill="none" xmlns="http://www.w3.org/2000/svg">
<path d="M120.946 90.7715H89.7305V124.022H120.946V90.7715Z" fill="#B06B43"/>
<path d="M130.157 580.39L120.098 600.298L120.935 614.332H157.253V598.039L146.356 579.486L130.157 580.39Z" fill="#D47D49"/>
<path d="M62.2901 580.39L52.2305 600.298L53.081 614.332H89.386V598.039L78.4892 579.486L62.2901 580.39Z" fill="#D47D49"/>
<path d="M5.24214 247.866L2.53125 297.184L21.0824 293.104L41.4408 248.318L44.6036 225.247L14.7437 218.004L5.24214 247.866Z" fill="#9F5E3B"/>
<path d="M29.7328 317.379L30.065 333.499L37.0283 349.779L31.4338 357.248L14.6367 339.267L16.165 330.097L29.7328 317.379Z" fill="#4B2929"/>
<path d="M20.1787 290.852L34.4244 308.952L39.6336 329.99L36.0058 334.508L29.4544 330.215L29.0025 318.454L14.0659 344.914L9.77366 337.006L2.53125 297.868L20.1787 290.852Z" fill="#9F5E3B"/>
<path d="M17.4543 332.475L24.019 350.123L33.0687 356.675L36.0055 360.755L30.5837 362.336L18.1454 356.449L9.77344 337.006L17.4543 332.475Z" fill="#9F5E3B"/>
<path d="M36.6853 150.603L13.1641 222.54L20.4065 247.87L29.0043 250.129L50.7182 233.397L57.0437 149.699L36.6853 150.603Z" fill="#9F5E3B"/>
<path d="M197.024 249.598L204.295 297.184L185.744 293.104L165.385 248.318L162.223 225.247L192.083 218.004L197.024 249.598Z" fill="#9F5E3B"/>
<path d="M177.096 317.379L176.764 333.499L169.801 349.779L175.409 357.248L192.192 339.267L190.678 330.097L177.096 317.379Z" fill="#4B2929"/>
<path d="M186.649 290.852L172.403 308.952L167.207 329.99L170.822 334.508L177.386 330.215L177.838 318.454L192.761 344.914L197.054 337.006L204.296 297.868L186.649 290.852Z" fill="#9F5E3B"/>
<path d="M189.371 332.475L182.807 350.123L173.757 356.675L170.82 360.755L176.242 362.336L188.694 356.449L197.052 337.006L189.371 332.475Z" fill="#9F5E3B"/>
<path d="M170.144 150.603L193.665 222.54L186.422 247.87L177.838 250.129L156.124 233.397L149.785 149.699L170.144 150.603Z" fill="#9F5E3B"/>
<path d="M0 290.604C9.99908 294.604 16.5 294.604 25.4984 294.604C25.2277 279.032 45.1743 255.72 49.5 224.104C54.3076 188.965 43.5485 145.332 43.2477 128.025C42.4902 128.398 41.746 128.756 40.9886 129.128L7.5 234.604L0 290.604Z" fill="#4D6D39"/>
<path d="M161.995 586.398C145.862 586.225 129.73 586.065 113.584 585.893C110.873 512.6 108.149 439.308 105.438 366.015C102.727 439.64 100.003 513.265 97.2919 586.889L45.8376 587.514C45.718 483.682 45.6118 379.85 45.4922 276.031H158.819C159.869 379.491 160.932 482.938 161.982 586.398H161.995Z" fill="#595984"/>
<path d="M42.2224 128.44L82.2616 115.549L94.1418 111.137H118.567L129.769 116.227L167.084 126.407L163.018 223.448L168.107 310.654L127.39 316.754L79.8829 317.1L38.4883 310.654L44.6011 216.657L42.2224 128.44Z" fill="#9DC483"/>
<path d="M164.309 245.389C123.44 245.447 82.9203 246.335 41.789 244.807C40.7698 261.361 39.7507 277.915 38.7461 294.469C81.7701 296.318 124.78 296.682 167.804 296.741C166.639 279.619 165.474 262.497 164.324 245.374L164.309 245.389Z" fill="#618749"/>
<path d="M38.749 294.486C38.3704 300.674 37.9918 306.862 37.6133 313.05C55.5509 316.864 78.3514 320.126 104.806 320.082C129.893 320.053 151.616 317.083 168.942 313.516C168.564 307.925 168.185 302.349 167.806 296.758C124.782 296.699 81.773 296.321 38.749 294.486Z" fill="#416828"/>
<rect x="64.6836" y="245.049" width="35.4451" height="35.4451" transform="rotate(45 64.6836 245.049)" fill="#7CA562"/>
<rect x="114.809" y="245.049" width="35.4451" height="35.4451" transform="rotate(45 114.809 245.049)" fill="#7CA562"/>
<path d="M138.659 270.776L168.025 294.441L164.215 242.885L138.659 270.776Z" fill="#7CA562"/>
<path d="M205 293.098C192.482 298.719 191.464 295.827 178.946 301.449L157 224.598L166.793 126.23L169.052 128.038L194.5 215.598L205 293.098Z" fill="#4D6D39"/>
<path d="M76.419 59.2082C75.0901 76.1924 81.7877 91.0236 93.3888 96.5388C95.9802 97.7747 100.591 99.3828 107.183 98.798C112.923 99.1303 117.069 97.8545 119.847 96.5388C133.335 90.1598 140.431 70.6905 137.494 47.8987C137.933 46.7558 142.611 33.6522 134.332 21.665C125.681 9.15941 110.903 9.41192 109.907 9.45179C96.9635 7.1261 83.8341 12.7609 76.6582 23.6983C69.6417 34.4097 69.5487 48.3373 76.4323 59.2082H76.419Z" fill="#B06B43"/>
<path d="M71.4375 59.9023L79.5835 66.0023L80.0354 74.3748L73.7099 68.2615L71.4375 59.9023Z" fill="#B06B43"/>
<path d="M137.15 61.8172L140.538 59.332L140.087 67.0267L133.535 72.9007L137.15 61.8172Z" fill="#B06B43"/>
<path d="M94.4472 8.76957L71.3779 23.9198L69.1055 48.3461L71.8297 61.9281L86.3012 79.5635L101.464 86.8064L123.629 79.1117L135.39 62.38L140.36 53.3297L137.875 23.9198L113.676 8.0918L94.4472 8.76957Z" fill="black"/>
<path d="M71.7085 58.8652C75.4589 58.8652 78.4991 55.8248 78.4991 52.0742C78.4991 48.3236 75.4589 45.2832 71.7085 45.2832C67.9582 45.2832 64.918 48.3236 64.918 52.0742C64.918 55.8248 67.9582 58.8652 71.7085 58.8652Z" fill="black"/>
<path d="M71.2085 49.8887C74.9589 49.8887 77.9991 46.8482 77.9991 43.0976C77.9991 39.3471 74.9589 36.3066 71.2085 36.3066C67.4582 36.3066 64.418 39.3471 64.418 43.0976C64.418 46.8482 67.4582 49.8887 71.2085 49.8887Z" fill="black"/>
<path d="M71.8804 39.707C75.6307 39.707 78.671 36.6666 78.671 32.916C78.671 29.1654 75.6307 26.125 71.8804 26.125C68.1301 26.125 65.0898 29.1654 65.0898 32.916C65.0898 36.6666 68.1301 39.707 71.8804 39.707Z" fill="black"/>
<path d="M74.7671 29.8574C78.5175 29.8574 81.5577 26.817 81.5577 23.0664C81.5577 19.3158 78.5175 16.2754 74.7671 16.2754C71.0168 16.2754 67.9766 19.3158 67.9766 23.0664C67.9766 26.817 71.0168 29.8574 74.7671 29.8574Z" fill="black"/>
<path d="M82.5679 21.5508C86.3182 21.5508 89.3585 18.5103 89.3585 14.7598C89.3585 11.0092 86.3182 7.96875 82.5679 7.96875C78.8176 7.96875 75.7773 11.0092 75.7773 14.7598C75.7773 18.5103 78.8176 21.5508 82.5679 21.5508Z" fill="black"/>
<path d="M98.0108 9.16795C98.0108 12.9156 94.9677 15.959 91.2202 15.959C87.4728 15.959 84.4297 12.9156 84.4297 9.16795C84.4297 5.42027 87.4728 2.37695 91.2202 2.37695C94.9677 2.37695 98.0108 5.42027 98.0108 9.16795Z" fill="black"/>
<path d="M100.545 13.7558C104.295 13.7558 107.335 10.7154 107.335 6.96484C107.335 3.21427 104.295 0.173828 100.545 0.173828C96.7942 0.173828 93.7539 3.21427 93.7539 6.96484C93.7539 10.7154 96.7942 13.7558 100.545 13.7558Z" fill="black"/>
<path d="M110.396 13.582C114.146 13.582 117.187 10.5416 117.187 6.79101C117.187 3.04044 114.146 0 110.396 0C106.646 0 103.605 3.04044 103.605 6.79101C103.605 10.5416 106.646 13.582 110.396 13.582Z" fill="black"/>
<path d="M121.584 19.5195C125.334 19.5195 128.374 16.4791 128.374 12.7285C128.374 8.97793 125.334 5.9375 121.584 5.9375C117.833 5.9375 114.793 8.97793 114.793 12.7285C114.793 16.4791 117.833 19.5195 121.584 19.5195Z" fill="black"/>
<path d="M132.279 26.6445C136.029 26.6445 139.069 23.6041 139.069 19.8535C139.069 16.1029 136.029 13.0625 132.279 13.0625C128.529 13.0625 125.488 16.1029 125.488 19.8535C125.488 23.6041 128.529 26.6445 132.279 26.6445Z" fill="black"/>
<path d="M138.9 36.9843C142.65 36.9843 145.69 33.9439 145.69 30.1934C145.69 26.4428 142.65 23.4023 138.9 23.4023C135.15 23.4023 132.109 26.4428 132.109 30.1934C132.109 33.9439 135.15 36.9843 138.9 36.9843Z" fill="black"/>
<path d="M139.404 48.6914C143.154 48.6914 146.194 45.651 146.194 41.9004C146.194 38.1498 143.154 35.1094 139.404 35.1094C135.654 35.1094 132.613 38.1498 132.613 41.9004C132.613 45.651 135.654 48.6914 139.404 48.6914Z" fill="black"/>
<path d="M138.724 60.4004C142.474 60.4004 145.515 57.3599 145.515 53.6094C145.515 49.8588 142.474 46.8184 138.724 46.8184C134.974 46.8184 131.934 49.8588 131.934 53.6094C131.934 57.3599 134.974 60.4004 138.724 60.4004Z" fill="black"/>
<path d="M139.511 61.5273C139.511 65.275 136.468 68.3183 132.72 68.3183C128.973 68.3183 125.93 65.275 125.93 61.5273C125.93 57.7797 128.973 54.7363 132.72 54.7363C136.468 54.7363 139.511 57.7797 139.511 61.5273Z" fill="black"/>
<path d="M74.9429 67.873C78.6932 67.873 81.7335 64.8326 81.7335 61.082C81.7335 57.3315 78.6932 54.291 74.9429 54.291C71.1926 54.291 68.1523 57.3315 68.1523 61.082C68.1523 64.8326 71.1926 67.873 74.9429 67.873Z" fill="black"/>
<path d="M127.02 17.4741C127.764 16.7432 129.212 15.1351 129.956 12.6101C130.568 10.5236 130.448 8.74282 130.302 7.74609" stroke="black" stroke-width="4" stroke-miterlimit="10"/>
<path d="M85.171 10.0029C85.2375 9.57763 85.4368 7.92971 84.3737 6.38811C83.7624 5.49771 83.0049 5.03256 82.5664 4.80664" stroke="black" stroke-width="4" stroke-miterlimit="10"/>
<path d="M141.266 47.6726C141.744 47.8586 145.133 49.1477 146.528 48.2307C146.741 48.0978 146.913 47.8985 146.913 47.8985C147.697 47.0347 147.804 45.4532 147.259 45.0678C146.541 44.5761 144.388 45.8519 144.428 46.8752C144.455 47.7656 146.143 48.6294 148.614 48.9085" stroke="black" stroke-width="4" stroke-miterlimit="10"/>
<path d="M69.2262 37.9425C68.5617 37.876 67.6581 37.8627 66.6215 38.0621C65.0003 38.3677 63.8043 39.0588 63.1133 39.5372" stroke="black" stroke-width="4" stroke-miterlimit="10"/>
</svg>
