<svg width="17431" height="840" viewBox="0 0 17431 840" fill="none" xmlns="http://www.w3.org/2000/svg">
<g opacity="0.7" filter="url(#filter0_f_352_30487)">
<path d="M1194.03 521.856H419.222H20.4766V426.066C20.4766 426.066 48.3029 372.954 89.7912 374.501C129.916 375.998 160.081 426.066 160.081 426.066C160.081 426.066 147.313 281.463 197.152 213.531C224.934 175.663 290.088 137.199 290.088 137.199C290.088 137.199 379.042 102.576 419.222 102.576C463.024 102.576 521.861 137.199 521.861 137.199L634.13 213.531C634.13 213.531 714.103 113.287 785.259 78.8264C898.674 23.8998 991.346 31.0213 1107.94 78.8264C1190.62 112.725 1288.5 219.382 1288.5 219.382C1288.5 219.382 1453.64 262.057 1479.48 348.236C1499.43 414.783 1440.7 521.856 1440.7 521.856H1194.03Z" fill="white"/>
<mask id="mask0_352_30487" style="mask-type:alpha" maskUnits="userSpaceOnUse" x="20" y="243" width="1451" height="279">
<path d="M1192.57 521.163H418.412H20V468.957L92.3593 426.54L159.488 468.957L204.821 395.543L289.386 311.524L418.412 243.004H597.131L653.797 353.126L743.593 279.711H1001.65L1470.76 391.228L1441.68 521.163H1192.57Z" fill="#DCE5B7"/>
</mask>
<g mask="url(#mask0_352_30487)">
<path d="M71.8674 464.666C25.9795 462.72 -15.545 507.555 -15.545 507.555C-45.2756 641.485 -71.4925 934.013 61.4841 1032.69C227.705 1156.03 446.63 1178.45 523.659 1189.66C600.688 1200.88 1499.93 969.58 1568.85 902.304C1623.99 848.482 1523.43 573.74 1500.46 533.872C1500.46 533.872 1403.33 441.341 1330.44 397.297C1282.15 368.122 1200.7 333.758 1200.7 333.758C1200.7 333.758 1138.24 287.12 989.888 300.12C889.446 308.922 752.893 430.735 752.893 430.735C752.893 430.735 669.32 349.356 611.719 333.755C519.678 308.826 455.875 297.833 367.544 333.755C277.979 370.179 191.217 507.555 191.217 507.555L153.3 482.6C153.3 482.6 105.367 466.086 71.8674 464.666Z" fill="#D3E2E7"/>
</g>
<path d="M2660.78 335.22H2023.46H1695.47V272.005C1695.47 272.005 1724.35 219.498 1755.04 220.642C1784.48 221.741 1806.14 235.807 1806.14 235.807C1806.14 235.807 1823.27 174.942 1859 131.746C1892.43 91.3152 1950.37 42.8505 2023.46 42.85C2096.56 42.8495 2155.11 74.7414 2235.99 112.951C2235.99 112.951 2275.73 66.8972 2324.55 42.85C2417.53 -2.95509 2589.97 42.85 2589.97 42.85C2589.97 42.85 2667.03 86.5411 2697.38 131.746C2729.23 179.181 2762.55 219.944 2739.01 272.005C2722.83 307.794 2660.78 335.22 2660.78 335.22Z" fill="white"/>
<g opacity="0.46">
<mask id="mask1_352_30487" style="mask-type:alpha" maskUnits="userSpaceOnUse" x="1695" y="170" width="1045" height="166">
<path d="M2660.79 335.123H2023.41H1695.39V304.208L1754.97 279.09L1810.23 304.208L1847.56 260.735L1917.18 210.982L2023.41 170.406H2170.55L2217.21 235.617L2291.14 192.143H2503.6L2697.39 235.617L2739.02 304.208L2660.79 335.123Z" fill="#DCE5B7"/>
</mask>
<g mask="url(#mask1_352_30487)">
<path d="M1741.28 256.074C1706.41 253.727 1663.78 300.834 1663.78 300.834C1642.74 369.084 1624.18 518.156 1718.32 568.439C1835.99 631.293 1990.98 642.721 2045.51 648.435C2100.05 654.149 2616.67 465.587 2665.47 431.303C2704.5 403.876 2681.73 356.386 2665.47 336.07C2665.47 336.07 2652.6 293.682 2621.58 267.683C2592.44 243.25 2524.83 212.267 2524.83 212.267C2524.83 212.267 2434.11 191.088 2375.58 195.125C2306.84 199.866 2206.24 244.646 2206.24 244.646C2206.24 244.646 2136.75 216.44 2089.7 212.265C2033.76 207.301 1947.08 230.769 1947.08 230.769L1810.16 300.834L1795.81 282.739C1795.81 282.739 1764.93 257.666 1741.28 256.074Z" fill="#8CBACA"/>
</g>
</g>
<path d="M2116.89 819.809H2754.21H3082.2V756.593C3082.2 756.593 3053.32 704.086 3022.63 705.231C2993.18 706.329 2971.52 720.396 2971.52 720.396C2971.52 720.396 2954.4 659.531 2918.67 616.335C2885.24 575.904 2827.3 527.439 2754.21 527.439C2681.11 527.438 2622.55 559.33 2541.67 597.539C2541.67 597.539 2501.94 551.486 2453.12 527.439C2360.14 481.634 2187.7 527.439 2187.7 527.439C2187.7 527.439 2110.64 571.13 2080.29 616.335C2048.44 663.77 2015.12 704.533 2038.66 756.593C2054.84 792.383 2116.89 819.809 2116.89 819.809Z" fill="white"/>
<g opacity="0.46">
<mask id="mask2_352_30487" style="mask-type:alpha" maskUnits="userSpaceOnUse" x="2038" y="654" width="1045" height="166">
<path d="M2116.88 819.712H2754.26H3082.28V788.797L3022.7 763.679L2967.43 788.797L2930.11 745.324L2860.49 695.57L2754.26 654.995H2607.12L2560.46 720.205L2486.53 676.732H2274.07L2080.27 720.205L2038.64 788.797L2116.88 819.712Z" fill="#DCE5B7"/>
</mask>
<g mask="url(#mask2_352_30487)">
<path d="M3036.39 740.663C3071.26 738.316 3113.88 785.423 3113.88 785.423C3134.93 853.673 3153.49 1002.74 3059.35 1053.03C2941.67 1115.88 2786.69 1127.31 2732.15 1133.02C2677.62 1138.74 2160.99 950.176 2112.2 915.892C2073.17 888.465 2095.94 840.975 2112.2 820.659C2112.2 820.659 2125.07 778.271 2156.08 752.272C2185.23 727.839 2252.84 696.856 2252.84 696.856C2252.84 696.856 2343.56 675.677 2402.09 679.714C2470.82 684.455 2571.42 729.235 2571.42 729.235C2571.42 729.235 2640.92 701.028 2687.97 696.854C2743.91 691.89 2830.59 715.358 2830.59 715.358L2967.51 785.423L2981.86 767.328C2981.86 767.328 3012.74 742.255 3036.39 740.663Z" fill="#8CBACA"/>
</g>
</g>
</g>
<g opacity="0.7" filter="url(#filter1_f_352_30487)">
<path d="M4483.03 519.364H3708.22H3309.48V423.574C3309.48 423.574 3337.3 370.461 3378.79 372.009C3418.92 373.506 3449.08 423.574 3449.08 423.574C3449.08 423.574 3436.31 278.971 3486.15 211.039C3513.93 173.171 3579.09 134.706 3579.09 134.706C3579.09 134.706 3668.04 100.084 3708.22 100.084C3752.02 100.084 3810.86 134.706 3810.86 134.706L3923.13 211.039C3923.13 211.039 4003.1 110.795 4074.26 76.3343C4187.67 21.4076 4280.35 28.5291 4396.94 76.3343C4479.62 110.233 4577.5 216.889 4577.5 216.889C4577.5 216.889 4742.64 259.565 4768.48 345.744C4788.43 412.29 4729.7 519.364 4729.7 519.364H4483.03Z" fill="white"/>
<mask id="mask3_352_30487" style="mask-type:alpha" maskUnits="userSpaceOnUse" x="3309" y="240" width="1451" height="279">
<path d="M4481.57 518.671H3707.41H3309V466.465L3381.36 424.048L3448.49 466.465L3493.82 393.051L3578.39 309.032L3707.41 240.512H3886.13L3942.8 350.633L4032.59 277.219H4290.65L4759.76 388.736L4730.68 518.671H4481.57Z" fill="#DCE5B7"/>
</mask>
<g mask="url(#mask3_352_30487)">
<path d="M3360.87 462.173C3314.98 460.228 3273.45 505.063 3273.45 505.063C3243.72 638.993 3217.51 931.521 3350.48 1030.19C3516.7 1153.53 3735.63 1175.96 3812.66 1187.17C3889.69 1198.38 4788.93 967.088 4857.85 899.811C4912.99 845.99 4812.43 571.248 4789.46 531.38C4789.46 531.38 4692.33 438.849 4619.44 394.805C4571.15 365.63 4489.7 331.266 4489.7 331.266C4489.7 331.266 4427.24 284.628 4278.89 297.628C4178.45 306.429 4041.89 428.243 4041.89 428.243C4041.89 428.243 3958.32 346.864 3900.72 331.263C3808.68 306.334 3744.87 295.341 3656.54 331.263C3566.98 367.687 3480.22 505.063 3480.22 505.063L3442.3 480.108C3442.3 480.108 3394.37 463.594 3360.87 462.173Z" fill="#D3E2E7"/>
</g>
<path d="M6293.03 332.728H5655.72H5327.73V269.512C5327.73 269.512 5356.6 217.005 5387.3 218.15C5416.74 219.248 5438.4 233.315 5438.4 233.315C5438.4 233.315 5455.53 172.45 5491.25 129.254C5524.69 88.8231 5582.62 40.3583 5655.72 40.3578C5728.81 40.3573 5787.37 72.2492 5868.25 110.458C5868.25 110.458 5907.98 64.405 5956.8 40.3578C6049.79 -5.44727 6222.22 40.3578 6222.22 40.3578C6222.22 40.3578 6299.28 84.0489 6329.64 129.254C6361.49 176.689 6394.8 217.452 6371.26 269.512C6355.08 305.302 6293.03 332.728 6293.03 332.728Z" fill="white"/>
<g opacity="0.46">
<mask id="mask4_352_30487" style="mask-type:alpha" maskUnits="userSpaceOnUse" x="5327" y="167" width="1045" height="166">
<path d="M6293.04 332.631H5655.66H5327.64V301.716L5387.22 276.598L5442.49 301.716L5479.81 258.242L5549.43 208.489L5655.66 167.914H5802.81L5849.46 233.124L5923.39 189.651H6135.85L6329.65 233.124L6371.28 301.716L6293.04 332.631Z" fill="#DCE5B7"/>
</mask>
<g mask="url(#mask4_352_30487)">
<path d="M5373.53 253.582C5338.66 251.235 5296.04 298.342 5296.04 298.342C5274.99 366.592 5256.43 515.664 5350.57 565.947C5468.25 628.801 5623.24 640.229 5677.77 645.943C5732.3 651.657 6248.93 463.095 6297.72 428.811C6336.76 401.384 6313.99 353.894 6297.72 333.578C6297.72 333.578 6284.85 291.19 6253.84 265.191C6224.69 240.758 6157.08 209.775 6157.08 209.775C6157.08 209.775 6066.37 188.596 6007.84 192.633C5939.1 197.374 5838.5 242.154 5838.5 242.154C5838.5 242.154 5769.01 213.947 5721.95 209.773C5666.01 204.809 5579.33 228.277 5579.33 228.277L5442.42 298.342L5428.07 280.247C5428.07 280.247 5397.18 255.174 5373.53 253.582Z" fill="#8CBACA"/>
</g>
</g>
</g>
<g opacity="0.7" filter="url(#filter2_f_352_30487)">
<path d="M7704.03 521.856H6929.22H6530.48V426.066C6530.48 426.066 6558.3 372.954 6599.79 374.501C6639.92 375.998 6670.08 426.066 6670.08 426.066C6670.08 426.066 6657.31 281.463 6707.15 213.531C6734.93 175.663 6800.09 137.199 6800.09 137.199C6800.09 137.199 6889.04 102.576 6929.22 102.576C6973.02 102.576 7031.86 137.199 7031.86 137.199L7144.13 213.531C7144.13 213.531 7224.1 113.287 7295.26 78.8264C7408.67 23.8998 7501.35 31.0213 7617.94 78.8264C7700.62 112.725 7798.5 219.382 7798.5 219.382C7798.5 219.382 7963.64 262.057 7989.48 348.236C8009.43 414.783 7950.7 521.856 7950.7 521.856H7704.03Z" fill="white"/>
<mask id="mask5_352_30487" style="mask-type:alpha" maskUnits="userSpaceOnUse" x="6530" y="243" width="1451" height="279">
<path d="M7702.57 521.163H6928.41H6530V468.957L6602.36 426.54L6669.49 468.957L6714.82 395.543L6799.39 311.524L6928.41 243.004H7107.13L7163.8 353.126L7253.59 279.711H7511.65L7980.76 391.228L7951.68 521.163H7702.57Z" fill="#DCE5B7"/>
</mask>
<g mask="url(#mask5_352_30487)">
<path d="M6581.87 464.666C6535.98 462.72 6494.45 507.555 6494.45 507.555C6464.72 641.485 6438.51 934.013 6571.48 1032.69C6737.7 1156.03 6956.63 1178.45 7033.66 1189.66C7110.69 1200.88 8009.93 969.58 8078.85 902.304C8133.99 848.482 8033.43 573.74 8010.46 533.872C8010.46 533.872 7913.33 441.341 7840.44 397.297C7792.15 368.122 7710.7 333.758 7710.7 333.758C7710.7 333.758 7648.24 287.12 7499.89 300.12C7399.45 308.922 7262.89 430.735 7262.89 430.735C7262.89 430.735 7179.32 349.356 7121.72 333.755C7029.68 308.826 6965.87 297.833 6877.54 333.755C6787.98 370.179 6701.22 507.555 6701.22 507.555L6663.3 482.6C6663.3 482.6 6615.37 466.086 6581.87 464.666Z" fill="#D3E2E7"/>
</g>
<path d="M8161.27 288.954H8654.61H8908.5V240.02C8908.5 240.02 8886.15 199.374 8862.39 200.261C8839.6 201.111 8822.83 211.999 8822.83 211.999C8822.83 211.999 8809.57 164.884 8781.92 131.447C8756.04 100.15 8711.19 62.6341 8654.61 62.6337C8598.02 62.6334 8552.7 87.3205 8490.09 116.898C8490.09 116.898 8459.33 81.2484 8421.54 62.6337C8349.56 27.1766 8216.08 62.6337 8216.08 62.6337C8216.08 62.6337 8156.43 96.4545 8132.93 131.447C8108.28 168.166 8082.49 199.72 8100.71 240.02C8113.24 267.724 8161.27 288.954 8161.27 288.954Z" fill="white"/>
<g opacity="0.46">
<mask id="mask6_352_30487" style="mask-type:alpha" maskUnits="userSpaceOnUse" x="8100" y="161" width="809" height="128">
<path d="M8161.26 288.878H8654.65H8908.56V264.948L8862.45 245.504L8819.66 264.948L8790.77 231.295L8736.88 192.782L8654.65 161.373H8540.75L8504.63 211.852L8447.4 178.199H8282.94L8132.92 211.852L8100.7 264.948L8161.26 288.878Z" fill="#DCE5B7"/>
</mask>
<g mask="url(#mask6_352_30487)">
<path d="M8873.04 227.687C8900.03 225.87 8933.03 262.335 8933.03 262.335C8949.32 315.167 8963.69 430.562 8890.81 469.485C8799.72 518.14 8679.75 526.986 8637.53 531.409C8595.32 535.832 8195.41 389.869 8157.64 363.33C8127.42 342.099 8145.05 305.338 8157.64 289.611C8157.64 289.611 8167.6 256.8 8191.61 236.674C8214.17 217.761 8266.5 193.777 8266.5 193.777C8266.5 193.777 8336.73 177.382 8382.03 180.507C8435.24 184.177 8513.12 218.841 8513.12 218.841C8513.12 218.841 8566.91 197.007 8603.33 193.775C8646.64 189.933 8713.73 208.099 8713.73 208.099L8819.72 262.335L8830.83 248.329C8830.83 248.329 8854.73 228.92 8873.04 227.687Z" fill="#8CBACA"/>
</g>
</g>
<path d="M9714.88 674.388H9077.56H8749.57V611.173C8749.57 611.173 8778.44 558.665 8809.14 559.81C8838.58 560.908 8860.24 574.975 8860.24 574.975C8860.24 574.975 8877.37 514.11 8913.09 470.914C8946.53 430.483 9004.46 382.018 9077.56 382.018C9150.66 382.017 9209.21 413.909 9290.09 452.119C9290.09 452.119 9329.83 406.065 9378.64 382.018C9471.63 336.213 9644.07 382.018 9644.07 382.018C9644.07 382.018 9721.13 425.709 9751.48 470.914C9783.33 518.349 9816.65 559.112 9793.11 611.173C9776.92 646.962 9714.88 674.388 9714.88 674.388Z" fill="white"/>
<g opacity="0.46">
<mask id="mask7_352_30487" style="mask-type:alpha" maskUnits="userSpaceOnUse" x="8749" y="509" width="1045" height="166">
<path d="M9714.89 674.29H9077.51H8749.49V643.375L8809.06 618.257L8864.33 643.375L8901.65 599.902L8971.28 550.149L9077.51 509.573H9224.65L9271.31 574.784L9345.24 531.31H9557.69L9751.49 574.784L9793.12 643.375L9714.89 674.29Z" fill="#DCE5B7"/>
</mask>
<g mask="url(#mask7_352_30487)">
<path d="M8795.38 595.241C8760.51 592.894 8717.88 640.001 8717.88 640.001C8696.83 708.251 8678.27 857.323 8772.41 907.606C8890.09 970.46 9045.08 981.888 9099.61 987.602C9154.15 993.316 9670.77 804.754 9719.57 770.47C9758.6 743.043 9735.83 695.553 9719.57 675.237C9719.57 675.237 9706.69 632.849 9675.68 606.85C9646.54 582.417 9578.93 551.434 9578.93 551.434C9578.93 551.434 9488.21 530.255 9429.68 534.292C9360.94 539.033 9260.34 583.813 9260.34 583.813C9260.34 583.813 9190.85 555.607 9143.8 551.432C9087.85 546.468 9001.18 569.936 9001.18 569.936L8864.26 640.001L8849.91 621.906C8849.91 621.906 8819.03 596.833 8795.38 595.241Z" fill="#8CBACA"/>
</g>
</g>
</g>
<g opacity="0.7" filter="url(#filter3_f_352_30487)">
<path d="M11068 521.856H10293.2H9894.48V426.066C9894.48 426.066 9922.3 372.954 9963.79 374.501C10003.9 375.998 10034.1 426.066 10034.1 426.066C10034.1 426.066 10021.3 281.463 10071.2 213.531C10098.9 175.663 10164.1 137.199 10164.1 137.199C10164.1 137.199 10253 102.576 10293.2 102.576C10337 102.576 10395.9 137.199 10395.9 137.199L10508.1 213.531C10508.1 213.531 10588.1 113.287 10659.3 78.8264C10772.7 23.8998 10865.3 31.0213 10981.9 78.8264C11064.6 112.725 11162.5 219.382 11162.5 219.382C11162.5 219.382 11327.6 262.057 11353.5 348.236C11373.4 414.783 11314.7 521.856 11314.7 521.856H11068Z" fill="white"/>
<mask id="mask8_352_30487" style="mask-type:alpha" maskUnits="userSpaceOnUse" x="9894" y="243" width="1451" height="279">
<path d="M11066.6 521.163H10292.4H9894V468.957L9966.36 426.54L10033.5 468.957L10078.8 395.543L10163.4 311.524L10292.4 243.004H10471.1L10527.8 353.126L10617.6 279.711H10875.6L11344.8 391.228L11315.7 521.163H11066.6Z" fill="#DCE5B7"/>
</mask>
<g mask="url(#mask8_352_30487)">
<path d="M9945.87 464.666C9899.98 462.72 9858.45 507.555 9858.45 507.555C9828.72 641.485 9802.51 934.013 9935.48 1032.69C10101.7 1156.03 10320.6 1178.45 10397.7 1189.66C10474.7 1200.88 11373.9 969.58 11442.9 902.304C11498 848.482 11397.4 573.74 11374.5 533.872C11374.5 533.872 11277.3 441.341 11204.4 397.297C11156.2 368.122 11074.7 333.758 11074.7 333.758C11074.7 333.758 11012.2 287.12 10863.9 300.12C10763.4 308.922 10626.9 430.735 10626.9 430.735C10626.9 430.735 10543.3 349.356 10485.7 333.755C10393.7 308.826 10329.9 297.833 10241.5 333.755C10152 370.179 10065.2 507.555 10065.2 507.555L10027.3 482.6C10027.3 482.6 9979.37 466.086 9945.87 464.666Z" fill="#D3E2E7"/>
</g>
<path d="M12343.6 302.614H11839.1H11579.5V252.581C11579.5 252.581 11602.4 211.023 11626.7 211.929C11650 212.798 11667.1 223.931 11667.1 223.931C11667.1 223.931 11680.7 175.758 11709 141.57C11735.4 109.569 11781.3 71.2108 11839.1 71.2104C11897 71.21 11943.3 96.4517 12007.4 126.693C12007.4 126.693 12038.8 90.2432 12077.4 71.2104C12151 34.9567 12287.5 71.2104 12287.5 71.2104C12287.5 71.2104 12348.5 105.791 12372.5 141.57C12397.7 179.113 12424.1 211.376 12405.5 252.581C12392.7 280.908 12343.6 302.614 12343.6 302.614Z" fill="white"/>
<g opacity="0.46">
<mask id="mask9_352_30487" style="mask-type:alpha" maskUnits="userSpaceOnUse" x="11579" y="172" width="827" height="131">
<path d="M12343.6 302.537H11839.1H11579.5V278.069L11626.6 258.189L11670.4 278.069L11699.9 243.661L11755 204.282L11839.1 172.168H11955.6L11992.5 223.78L12051 189.372H12219.2L12372.5 223.78L12405.5 278.069L12343.6 302.537Z" fill="#DCE5B7"/>
</mask>
<g mask="url(#mask9_352_30487)">
<path d="M11615.8 239.973C11588.2 238.115 11554.5 275.399 11554.5 275.399C11537.8 329.418 11523.1 447.404 11597.6 487.202C11690.8 536.95 11813.4 545.995 11856.6 550.517C11899.8 555.04 12308.7 405.798 12347.3 378.663C12378.2 356.955 12360.1 319.368 12347.3 303.288C12347.3 303.288 12337.1 269.739 12312.5 249.161C12289.5 229.823 12236 205.301 12236 205.301C12236 205.301 12164.2 188.538 12117.8 191.733C12063.4 195.485 11983.8 230.928 11983.8 230.928C11983.8 230.928 11928.8 208.603 11891.6 205.299C11847.3 201.371 11778.7 219.944 11778.7 219.944L11670.3 275.399L11659 261.078C11659 261.078 11634.5 241.233 11615.8 239.973Z" fill="#8CBACA"/>
</g>
</g>
<path d="M13099.1 674.388H12461.8H12133.8V611.173C12133.8 611.173 12162.6 558.665 12193.3 559.81C12222.8 560.908 12244.4 574.975 12244.4 574.975C12244.4 574.975 12261.6 514.11 12297.3 470.914C12330.7 430.483 12388.7 382.018 12461.8 382.018C12534.8 382.017 12593.4 413.909 12674.3 452.119C12674.3 452.119 12714 406.065 12762.8 382.018C12855.8 336.213 13028.3 382.018 13028.3 382.018C13028.3 382.018 13105.3 425.709 13135.7 470.914C13167.5 518.349 13200.8 559.112 13177.3 611.173C13161.1 646.962 13099.1 674.388 13099.1 674.388Z" fill="white"/>
<g opacity="0.46">
<mask id="mask10_352_30487" style="mask-type:alpha" maskUnits="userSpaceOnUse" x="12133" y="509" width="1045" height="166">
<path d="M13099.1 674.29H12461.7H12133.7V643.375L12193.3 618.257L12248.5 643.375L12285.8 599.902L12355.5 550.149L12461.7 509.573H12608.8L12655.5 574.784L12729.4 531.31H12941.9L13135.7 574.784L13177.3 643.375L13099.1 674.29Z" fill="#DCE5B7"/>
</mask>
<g mask="url(#mask10_352_30487)">
<path d="M12179.6 595.241C12144.7 592.894 12102.1 640.001 12102.1 640.001C12081 708.251 12062.5 857.323 12156.6 907.606C12274.3 970.46 12429.3 981.888 12483.8 987.602C12538.3 993.316 13055 804.754 13103.8 770.47C13142.8 743.043 13120 695.553 13103.8 675.237C13103.8 675.237 13090.9 632.849 13059.9 606.85C13030.7 582.417 12963.1 551.434 12963.1 551.434C12963.1 551.434 12872.4 530.255 12813.9 534.292C12745.1 539.033 12644.5 583.813 12644.5 583.813C12644.5 583.813 12575 555.607 12528 551.432C12472 546.468 12385.4 569.936 12385.4 569.936L12248.5 640.001L12234.1 621.906C12234.1 621.906 12203.2 596.833 12179.6 595.241Z" fill="#8CBACA"/>
</g>
</g>
</g>
<g opacity="0.7" filter="url(#filter4_f_352_30487)">
<path d="M14498.2 521.856H13723.4H13324.7V426.066C13324.7 426.066 13352.5 372.954 13394 374.501C13434.1 375.998 13464.3 426.066 13464.3 426.066C13464.3 426.066 13451.5 281.463 13501.4 213.531C13529.1 175.663 13594.3 137.199 13594.3 137.199C13594.3 137.199 13683.3 102.576 13723.4 102.576C13767.2 102.576 13826.1 137.199 13826.1 137.199L13938.3 213.531C13938.3 213.531 14018.3 113.287 14089.5 78.8264C14202.9 23.8998 14295.6 31.0213 14412.2 78.8264C14494.8 112.725 14592.7 219.382 14592.7 219.382C14592.7 219.382 14757.9 262.057 14783.7 348.236C14803.6 414.783 14744.9 521.856 14744.9 521.856H14498.2Z" fill="white"/>
<mask id="mask11_352_30487" style="mask-type:alpha" maskUnits="userSpaceOnUse" x="13324" y="243" width="1451" height="279">
<path d="M14496.8 521.163H13722.6H13324.2V468.957L13396.6 426.54L13463.7 468.957L13509 395.543L13593.6 311.524L13722.6 243.004H13901.3L13958 353.126L14047.8 279.711H14305.9L14775 391.228L14745.9 521.163H14496.8Z" fill="#DCE5B7"/>
</mask>
<g mask="url(#mask11_352_30487)">
<path d="M13376.1 464.666C13330.2 462.72 13288.7 507.555 13288.7 507.555C13258.9 641.485 13232.7 934.013 13365.7 1032.69C13531.9 1156.03 13750.8 1178.45 13827.9 1189.66C13904.9 1200.88 14804.1 969.58 14873.1 902.304C14928.2 848.482 14827.6 573.74 14804.7 533.872C14804.7 533.872 14707.5 441.341 14634.7 397.297C14586.4 368.122 14504.9 333.758 14504.9 333.758C14504.9 333.758 14442.5 287.12 14294.1 300.12C14193.7 308.922 14057.1 430.735 14057.1 430.735C14057.1 430.735 13973.5 349.356 13915.9 333.755C13823.9 308.826 13760.1 297.833 13671.8 333.755C13582.2 370.179 13495.4 507.555 13495.4 507.555L13457.5 482.6C13457.5 482.6 13409.6 466.086 13376.1 464.666Z" fill="#D3E2E7"/>
</g>
<path d="M16013 335.22H15375.7H15047.7V272.005C15047.7 272.005 15076.6 219.498 15107.3 220.642C15136.7 221.741 15158.4 235.807 15158.4 235.807C15158.4 235.807 15175.5 174.942 15211.3 131.746C15244.7 91.3152 15302.6 42.8505 15375.7 42.85C15448.8 42.8495 15507.4 74.7414 15588.3 112.951C15588.3 112.951 15628 66.8972 15676.8 42.85C15769.8 -2.95509 15942.2 42.85 15942.2 42.85C15942.2 42.85 16019.3 86.5411 16049.6 131.746C16081.5 179.181 16114.8 219.944 16091.3 272.005C16075.1 307.794 16013 335.22 16013 335.22Z" fill="white"/>
<g opacity="0.46">
<mask id="mask12_352_30487" style="mask-type:alpha" maskUnits="userSpaceOnUse" x="15047" y="170" width="1045" height="166">
<path d="M16013 335.123H15375.7H15047.6V304.208L15107.2 279.09L15162.5 304.208L15199.8 260.735L15269.4 210.982L15375.7 170.406H15522.8L15569.5 235.617L15643.4 192.143H15855.9L16049.7 235.617L16091.3 304.208L16013 335.123Z" fill="#DCE5B7"/>
</mask>
<g mask="url(#mask12_352_30487)">
<path d="M15093.5 256.074C15058.7 253.727 15016 300.834 15016 300.834C14995 369.084 14976.4 518.156 15070.6 568.439C15188.3 631.293 15343.2 642.721 15397.8 648.435C15452.3 654.149 15968.9 465.587 16017.7 431.303C16056.8 403.876 16034 356.386 16017.7 336.07C16017.7 336.07 16004.9 293.682 15973.8 267.683C15944.7 243.25 15877.1 212.267 15877.1 212.267C15877.1 212.267 15786.4 191.088 15727.8 195.125C15659.1 199.866 15558.5 244.646 15558.5 244.646C15558.5 244.646 15489 216.44 15442 212.265C15386 207.301 15299.3 230.769 15299.3 230.769L15162.4 300.834L15148.1 282.739C15148.1 282.739 15117.2 257.666 15093.5 256.074Z" fill="#8CBACA"/>
</g>
</g>
<path d="M17324.4 674.388H16687.1H16359.1V611.173C16359.1 611.173 16388 558.665 16418.7 559.81C16448.1 560.908 16469.8 574.975 16469.8 574.975C16469.8 574.975 16486.9 514.11 16522.6 470.914C16556.1 430.483 16614 382.018 16687.1 382.018C16760.2 382.017 16818.7 413.909 16899.6 452.119C16899.6 452.119 16939.4 406.065 16988.2 382.018C17081.2 336.213 17253.6 382.018 17253.6 382.018C17253.6 382.018 17330.7 425.709 17361 470.914C17392.9 518.349 17426.2 559.112 17402.6 611.173C17386.5 646.962 17324.4 674.388 17324.4 674.388Z" fill="white"/>
<g opacity="0.46">
<mask id="mask13_352_30487" style="mask-type:alpha" maskUnits="userSpaceOnUse" x="16359" y="509" width="1044" height="166">
<path d="M17324.4 674.29H16687H16359V643.375L16418.6 618.257L16473.9 643.375L16511.2 599.902L16580.8 550.149L16687 509.573H16834.2L16880.8 574.784L16954.8 531.31H17167.2L17361 574.784L17402.6 643.375L17324.4 674.29Z" fill="#DCE5B7"/>
</mask>
<g mask="url(#mask13_352_30487)">
<path d="M16404.9 595.241C16370 592.894 16327.4 640.001 16327.4 640.001C16306.4 708.251 16287.8 857.323 16381.9 907.606C16499.6 970.46 16654.6 981.888 16709.1 987.602C16763.7 993.316 17280.3 804.754 17329.1 770.47C17368.1 743.043 17345.4 695.553 17329.1 675.237C17329.1 675.237 17316.2 632.849 17285.2 606.85C17256.1 582.417 17188.5 551.434 17188.5 551.434C17188.5 551.434 17097.7 530.255 17039.2 534.292C16970.5 539.033 16869.9 583.813 16869.9 583.813C16869.9 583.813 16800.4 555.607 16753.3 551.432C16697.4 546.468 16610.7 569.936 16610.7 569.936L16473.8 640.001L16459.4 621.906C16459.4 621.906 16428.6 596.833 16404.9 595.241Z" fill="#8CBACA"/>
</g>
</g>
</g>
<defs>
<filter id="filter0_f_352_30487" x="0" y="2.49219" width="3102.28" height="837.315" filterUnits="userSpaceOnUse" color-interpolation-filters="sRGB">
<feFlood flood-opacity="0" result="BackgroundImageFix"/>
<feBlend mode="normal" in="SourceGraphic" in2="BackgroundImageFix" result="shape"/>
<feGaussianBlur stdDeviation="10" result="effect1_foregroundBlur_352_30487"/>
</filter>
<filter id="filter1_f_352_30487" x="3289" y="0" width="3110.2" height="539.364" filterUnits="userSpaceOnUse" color-interpolation-filters="sRGB">
<feFlood flood-opacity="0" result="BackgroundImageFix"/>
<feBlend mode="normal" in="SourceGraphic" in2="BackgroundImageFix" result="shape"/>
<feGaussianBlur stdDeviation="10" result="effect1_foregroundBlur_352_30487"/>
</filter>
<filter id="filter2_f_352_30487" x="6510" y="20.2559" width="3311.04" height="674.132" filterUnits="userSpaceOnUse" color-interpolation-filters="sRGB">
<feFlood flood-opacity="0" result="BackgroundImageFix"/>
<feBlend mode="normal" in="SourceGraphic" in2="BackgroundImageFix" result="shape"/>
<feGaussianBlur stdDeviation="10" result="effect1_foregroundBlur_352_30487"/>
</filter>
<filter id="filter3_f_352_30487" x="9874" y="20.2559" width="3331.23" height="674.132" filterUnits="userSpaceOnUse" color-interpolation-filters="sRGB">
<feFlood flood-opacity="0" result="BackgroundImageFix"/>
<feBlend mode="normal" in="SourceGraphic" in2="BackgroundImageFix" result="shape"/>
<feGaussianBlur stdDeviation="10" result="effect1_foregroundBlur_352_30487"/>
</filter>
<filter id="filter4_f_352_30487" x="13304.2" y="2.49219" width="4126.35" height="691.896" filterUnits="userSpaceOnUse" color-interpolation-filters="sRGB">
<feFlood flood-opacity="0" result="BackgroundImageFix"/>
<feBlend mode="normal" in="SourceGraphic" in2="BackgroundImageFix" result="shape"/>
<feGaussianBlur stdDeviation="10" result="effect1_foregroundBlur_352_30487"/>
</filter>
</defs>
</svg>
