<svg width="76" height="76" viewBox="0 0 76 76" fill="none" xmlns="http://www.w3.org/2000/svg">
<circle cx="37.708" cy="37.708" r="37.708" fill="#FEA459"/>
<g clip-path="url(#clip0_588_31086)">
<path d="M17.7056 45.1775C16.7974 45.1775 16.2206 44.3968 16.1875 43.5828V31.706C16.2008 30.8119 16.8438 30.0846 17.7454 30.0779H27.2652L37.4811 21.197C37.985 20.7633 38.6147 20.6832 39.1849 20.9434C39.7086 21.1836 40.0865 21.6907 40.0865 22.3847V52.9775C40.0865 53.6581 39.7484 54.1585 39.2512 54.4121C38.7274 54.679 38.0645 54.6923 37.5739 54.2653L27.1525 45.1775L17.7123 45.1642L17.7056 45.1775Z" fill="#A62217"/>
<path d="M46.3438 33.2461L57.7871 44.6895" stroke="#A62217" stroke-width="2" stroke-linecap="round"/>
<path d="M57.7871 33.2461L46.3438 44.6895" stroke="#A62217" stroke-width="2" stroke-linecap="round"/>
</g>
<defs>
<clipPath id="clip0_588_31086">
<rect width="43.038" height="33.8156" fill="white" transform="translate(16.1875 20.7969)"/>
</clipPath>
</defs>
</svg>
